<svg xmlns="http://www.w3.org/2000/svg" viewBox="0 0 512 512" role="img" aria-label="Manhwa Library icon">
  <defs>
    <linearGradient id="g" x1="76" y1="56" x2="436" y2="456" gradientUnits="userSpaceOnUse">
      <stop stop-color="#ff006e"/>
      <stop offset="0.58" stop-color="#8b5cf6"/>
      <stop offset="1" stop-color="#14b8a6"/>
    </linearGradient>
  </defs>
  <rect width="512" height="512" rx="112" fill="#0d0d12"/>
  <rect x="76" y="56" width="360" height="400" rx="48" fill="url(#g)"/>
  <rect x="116" y="96" width="280" height="320" rx="30" fill="#12121a"/>
  <path d="M154 154h70c41 0 73 28 73 69 0 25-11 46-31 58l50 77h-57l-42-66h-17v66h-46V154Zm46 39v60h24c17 0 27-12 27-30 0-18-10-30-27-30h-24Z" fill="#fff"/>
  <path d="M326 154h44v204h-44V154Z" fill="#fff" opacity=".86"/>
  <path d="M120 426h272" stroke="#fff" stroke-width="20" stroke-linecap="round" opacity=".26"/>
</svg>
